<svg width="40" height="41" viewBox="0 0 40 41" fill="none" xmlns="http://www.w3.org/2000/svg">
<path fill-rule="evenodd" clip-rule="evenodd" d="M14.8575 5.59967C15.2167 8.59127 14.7251 11.7104 13.6334 14.5116C12.4255 17.6105 10.8182 20.9649 10.6194 24.3032C10.452 27.1145 11.0957 30.4404 12.8123 32.7171C14.6924 35.2106 17.778 36.7949 21.1758 36.7949H24.3893C29.9144 36.7949 34.5171 32.6038 34.9759 27.1551L35.7429 18.0464C35.8461 16.8206 34.8686 15.7692 33.6256 15.7692H22.3089C20.5431 15.7692 19.1318 14.3551 19.1188 12.6313C19.1034 10.5922 19.2332 8.07562 18.2839 6.1967C17.4348 4.51613 16.6402 4.20513 15.9349 4.20513C15.2982 4.20513 14.7893 5.03159 14.8575 5.59967ZM15.9349 0C18.815 0 20.809 1.79156 22.0846 4.31611C23.1944 6.51271 23.2992 9.15156 23.3531 11.5641H33.6256C37.3546 11.5641 40.2872 14.7181 39.9775 18.3956L39.2105 27.5043C38.5681 35.1325 32.1244 41 24.3893 41H21.1758C16.9964 41 13.1121 39.2794 10.4103 36.4195C9.45972 36.6649 8.46278 36.7951 7.43627 36.7951C5.0817 36.7951 3.1266 35.4893 1.86111 33.4133C0.630802 31.395 0 28.6087 0 25.231C0 21.8534 0.630802 19.0671 1.86111 17.0487C3.1266 14.9727 5.0817 13.6669 7.43627 13.6669C8.03435 13.6669 8.66568 13.771 9.30026 13.9475C10.2723 11.4262 10.9656 8.82514 10.6378 6.09584C10.273 3.05757 12.7809 0 15.9349 0ZM7.85235 17.9231C6.8229 17.7121 6.01479 18.3757 5.49966 19.2208C4.80754 20.3562 4.2493 22.3007 4.2493 25.231C4.2493 28.1613 4.80754 30.1058 5.49966 31.2412C6.15661 32.319 6.85732 32.59 7.43627 32.59C7.57136 32.59 7.70543 32.5865 7.83844 32.5796C6.70086 30.0389 6.21288 26.8192 6.37744 24.0558C6.4783 22.3622 7.14595 20.0231 7.85235 17.9231Z" fill="white"/>
</svg>
